<svg width="64" height="64" viewBox="0 0 64 64" fill="none" xmlns="http://www.w3.org/2000/svg">
  <!-- Background -->
  <circle cx="32" cy="32" r="28" fill="#E8F5E9" />
  
  <!-- Carbon Molecule Structure - Simplified -->
  <circle cx="32" cy="32" r="8" fill="#4CAF50" fill-opacity="0.7" />
  <text x="28" y="36" fill="#FFFFFF" font-family="Arial" font-weight="bold" font-size="12">C</text>
  
  <!-- Gauge Element -->
  <path d="M32 32L32 20" stroke="#2E7D32" stroke-width="2" stroke-linecap="round" />
  <path d="M32 32L44 38" stroke="#2E7D32" stroke-width="2" stroke-linecap="round" />
  
  <!-- Gauge Markings -->
  <path d="M32 14C40.8366 14 48 21.1634 48 30" stroke="#81C784" stroke-width="2" stroke-linecap="round" />
  <circle cx="32" cy="14" r="1.5" fill="#2E7D32" />
  <circle cx="39.5" cy="16.5" r="1.5" fill="#2E7D32" />
  <circle cx="45.5" cy="22.5" r="1.5" fill="#2E7D32" />
  <circle cx="48" cy="30" r="1.5" fill="#2E7D32" />
  
  <!-- Leaf Element -->
  <path d="M20 40C20 40 20 48 12 56C4 48 4 40 4 40C4 40 12 40 20 40Z" fill="#81C784" />
  <path d="M14 46C14 46 14 50 12 52C10 50 10 46 10 46C10 46 12 46 14 46Z" fill="#E8F5E9" />
  
  <!-- Data Points - Small Dots -->
  <circle cx="24" cy="44" r="1.5" fill="#2E7D32" />
  <circle cx="28" cy="48" r="1.5" fill="#2E7D32" />
  <circle cx="32" cy="52" r="1.5" fill="#2E7D32" />
  <circle cx="36" cy="48" r="1.5" fill="#2E7D32" />
  <circle cx="40" cy="44" r="1.5" fill="#2E7D32" />
  
  <!-- Connection Lines -->
  <path d="M24 44L28 48L32 52L36 48L40 44" stroke="#2E7D32" stroke-width="1" stroke-dasharray="2 1" />
</svg> 