<svg width="60" height="60" viewBox="0 0 60 60" fill="none" xmlns="http://www.w3.org/2000/svg">
  <!-- Leaf Route Element -->
  <path d="M50 10C50 10 50 35 25 60C0 35 0 10 0 10C0 10 25 10 50 10Z" fill="#4CAF50"/>
  
  <!-- Route/Path Element -->
  <path d="M32 14C32 14 32 30 25 37C18 30 18 14 18 14" stroke="white" stroke-width="4" stroke-linecap="round"/>
  
  <!-- Route Markers -->
  <circle cx="25" cy="25" r="3" fill="white"/>
  <circle cx="25" cy="37" r="4" fill="white"/>
  
  <!-- Small Globe Element -->
  <circle cx="45" cy="20" r="6" fill="#81C784" fill-opacity="0.7" />
  <ellipse cx="45" cy="20" rx="4" ry="6" stroke="white" stroke-width="1" />
  <path d="M39 20H51" stroke="white" stroke-width="1" />
  <path d="M45 14V26" stroke="white" stroke-width="1" />
  
  <!-- Small Culture Symbol -->
  <rect x="8" y="20" width="4" height="8" rx="1" fill="#8D6E63" />
  <path d="M6 20H14L10 16L6 20Z" fill="#A1887F" />
  <rect x="7" y="28" width="6" height="1" rx="0.5" fill="#A1887F" />
</svg> 