<svg width="200" height="60" viewBox="0 0 200 60" fill="none" xmlns="http://www.w3.org/2000/svg">
  <!-- Leaf Route Element -->
  <path d="M40 10C40 10 40 30 20 50C0 30 0 10 0 10C0 10 20 10 40 10Z" fill="#4CAF50"/>
  
  <!-- Route/Path Element -->
  <path d="M25 13C25 13 25 25 20 30C15 25 15 13 15 13" stroke="white" stroke-width="3" stroke-linecap="round"/>
  
  <!-- Route Pin -->
  <circle cx="20" cy="30" r="4" fill="white"/>
  <path d="M20 38V34" stroke="white" stroke-width="2" stroke-linecap="round"/>
  
  <!-- Text: EcoRoute -->
  <text x="50" y="35" font-family="Arial" font-weight="bold" font-size="24" fill="#2E7D32">Eco</text>
  <text x="94" y="35" font-family="Arial" font-weight="bold" font-size="24" fill="#4CAF50">Route</text>
  
  <!-- Tagline -->
  <text x="50" y="48" font-family="Arial" font-size="10" fill="#757575">Sustainable Tourism &amp; Cultural Preservation</text>
  
  <!-- Culture Symbol - Small Monument -->
  <rect x="168" y="18" width="6" height="12" rx="1" fill="#8D6E63" />
  <path d="M165 18H177L171 14L165 18Z" fill="#A1887F" />
  <rect x="166" y="30" width="10" height="2" rx="1" fill="#A1887F" />
  
  <!-- Small Globe Element -->
  <circle cx="185" cy="22" r="8" fill="#81C784" fill-opacity="0.7" />
  <ellipse cx="185" cy="22" rx="6" ry="8" stroke="white" stroke-width="1" />
  <path d="M177 22H193" stroke="white" stroke-width="1" />
  <path d="M185 14V30" stroke="white" stroke-width="1" />
</svg> 